<mxfile host="app.diagrams.net" modified="2023-11-09T13:48:00.487Z" agent="Mozilla/5.0 (Windows NT 10.0; Win64; x64) AppleWebKit/537.36 (KHTML, like Gecko) Chrome/119.0.0.0 Safari/537.36" etag="umoEcebMF5pqka-AYReF" version="22.1.0" type="google">
  <diagram name="Página-1" id="oKIlooJLRSVnscNaMvM3">
    <mxGraphModel grid="0" page="0" gridSize="10" guides="1" tooltips="1" connect="1" arrows="1" fold="1" pageScale="1" pageWidth="827" pageHeight="1169" math="0" shadow="0">
      <root>
        <mxCell id="0" />
        <mxCell id="1" parent="0" />
        <mxCell id="-ecldrPw1DCwmZXhr8sZ-22" value="" style="edgeStyle=orthogonalEdgeStyle;rounded=0;orthogonalLoop=1;jettySize=auto;html=1;" edge="1" parent="1" source="-ecldrPw1DCwmZXhr8sZ-24" target="-ecldrPw1DCwmZXhr8sZ-26">
          <mxGeometry relative="1" as="geometry" />
        </mxCell>
        <mxCell id="-ecldrPw1DCwmZXhr8sZ-23" value="UsuarioA&lt;br&gt;ASODI" style="edgeLabel;html=1;align=center;verticalAlign=middle;resizable=0;points=[];" connectable="0" vertex="1" parent="-ecldrPw1DCwmZXhr8sZ-22">
          <mxGeometry x="-0.1704" relative="1" as="geometry">
            <mxPoint as="offset" />
          </mxGeometry>
        </mxCell>
        <mxCell id="-ecldrPw1DCwmZXhr8sZ-24" value="Inicio" style="ellipse;whiteSpace=wrap;html=1;" vertex="1" parent="1">
          <mxGeometry x="-475" y="86" width="120" height="80" as="geometry" />
        </mxCell>
        <mxCell id="-ecldrPw1DCwmZXhr8sZ-25" value="" style="edgeStyle=orthogonalEdgeStyle;rounded=0;orthogonalLoop=1;jettySize=auto;html=1;" edge="1" parent="1" source="-ecldrPw1DCwmZXhr8sZ-26" target="-ecldrPw1DCwmZXhr8sZ-28">
          <mxGeometry relative="1" as="geometry" />
        </mxCell>
        <mxCell id="-ecldrPw1DCwmZXhr8sZ-26" value="Inicio Sesión" style="whiteSpace=wrap;html=1;" vertex="1" parent="1">
          <mxGeometry x="-475" y="256" width="120" height="60" as="geometry" />
        </mxCell>
        <mxCell id="-ecldrPw1DCwmZXhr8sZ-27" value="" style="edgeStyle=orthogonalEdgeStyle;rounded=0;orthogonalLoop=1;jettySize=auto;html=1;" edge="1" parent="1" source="-ecldrPw1DCwmZXhr8sZ-28" target="-ecldrPw1DCwmZXhr8sZ-30">
          <mxGeometry relative="1" as="geometry" />
        </mxCell>
        <mxCell id="-ecldrPw1DCwmZXhr8sZ-28" value="Sección de registro de alimentacion" style="whiteSpace=wrap;html=1;" vertex="1" parent="1">
          <mxGeometry x="-475" y="396" width="120" height="60" as="geometry" />
        </mxCell>
        <mxCell id="-ecldrPw1DCwmZXhr8sZ-29" value="" style="edgeStyle=orthogonalEdgeStyle;rounded=0;orthogonalLoop=1;jettySize=auto;html=1;" edge="1" parent="1" source="-ecldrPw1DCwmZXhr8sZ-30">
          <mxGeometry relative="1" as="geometry">
            <mxPoint x="-75" y="426" as="targetPoint" />
          </mxGeometry>
        </mxCell>
        <mxCell id="-ecldrPw1DCwmZXhr8sZ-30" value="Selecciona el registro" style="whiteSpace=wrap;html=1;" vertex="1" parent="1">
          <mxGeometry x="-275" y="396" width="120" height="60" as="geometry" />
        </mxCell>
        <mxCell id="-ecldrPw1DCwmZXhr8sZ-31" value="" style="edgeStyle=orthogonalEdgeStyle;rounded=0;orthogonalLoop=1;jettySize=auto;html=1;" edge="1" parent="1" source="-ecldrPw1DCwmZXhr8sZ-32" target="-ecldrPw1DCwmZXhr8sZ-37">
          <mxGeometry relative="1" as="geometry" />
        </mxCell>
        <mxCell id="-ecldrPw1DCwmZXhr8sZ-32" value="Eliminar registro" style="whiteSpace=wrap;html=1;" vertex="1" parent="1">
          <mxGeometry x="-75" y="396" width="120" height="60" as="geometry" />
        </mxCell>
        <mxCell id="-ecldrPw1DCwmZXhr8sZ-33" value="" style="edgeStyle=orthogonalEdgeStyle;rounded=0;orthogonalLoop=1;jettySize=auto;html=1;exitX=1;exitY=0.5;exitDx=0;exitDy=0;" edge="1" parent="1" source="-ecldrPw1DCwmZXhr8sZ-37" target="-ecldrPw1DCwmZXhr8sZ-39">
          <mxGeometry relative="1" as="geometry" />
        </mxCell>
        <mxCell id="-ecldrPw1DCwmZXhr8sZ-34" value="Si" style="edgeLabel;html=1;align=center;verticalAlign=middle;resizable=0;points=[];" connectable="0" vertex="1" parent="-ecldrPw1DCwmZXhr8sZ-33">
          <mxGeometry x="-0.35" y="-2" relative="1" as="geometry">
            <mxPoint as="offset" />
          </mxGeometry>
        </mxCell>
        <mxCell id="-ecldrPw1DCwmZXhr8sZ-35" value="" style="edgeStyle=orthogonalEdgeStyle;rounded=0;orthogonalLoop=1;jettySize=auto;html=1;" edge="1" parent="1" source="-ecldrPw1DCwmZXhr8sZ-37" target="-ecldrPw1DCwmZXhr8sZ-41">
          <mxGeometry relative="1" as="geometry" />
        </mxCell>
        <mxCell id="-ecldrPw1DCwmZXhr8sZ-36" value="No" style="edgeLabel;html=1;align=center;verticalAlign=middle;resizable=0;points=[];" connectable="0" vertex="1" parent="-ecldrPw1DCwmZXhr8sZ-35">
          <mxGeometry x="0.1556" y="-2" relative="1" as="geometry">
            <mxPoint as="offset" />
          </mxGeometry>
        </mxCell>
        <mxCell id="-ecldrPw1DCwmZXhr8sZ-37" value="¿Eliminación&lt;br&gt;Exitosa?" style="rhombus;whiteSpace=wrap;html=1;" vertex="1" parent="1">
          <mxGeometry x="95" y="386" width="80" height="80" as="geometry" />
        </mxCell>
        <mxCell id="-ecldrPw1DCwmZXhr8sZ-38" style="edgeStyle=orthogonalEdgeStyle;rounded=0;orthogonalLoop=1;jettySize=auto;html=1;entryX=1;entryY=0.5;entryDx=0;entryDy=0;" edge="1" parent="1" source="-ecldrPw1DCwmZXhr8sZ-39" target="-ecldrPw1DCwmZXhr8sZ-42">
          <mxGeometry relative="1" as="geometry">
            <mxPoint x="285" y="706" as="targetPoint" />
            <Array as="points">
              <mxPoint x="275" y="296" />
              <mxPoint x="275" y="726" />
            </Array>
          </mxGeometry>
        </mxCell>
        <mxCell id="-ecldrPw1DCwmZXhr8sZ-39" value="Mostrar confirmación de eliminación" style="whiteSpace=wrap;html=1;" vertex="1" parent="1">
          <mxGeometry x="135" y="266" width="120" height="60" as="geometry" />
        </mxCell>
        <mxCell id="-ecldrPw1DCwmZXhr8sZ-40" value="" style="edgeStyle=orthogonalEdgeStyle;rounded=0;orthogonalLoop=1;jettySize=auto;html=1;" edge="1" parent="1" source="-ecldrPw1DCwmZXhr8sZ-41" target="-ecldrPw1DCwmZXhr8sZ-42">
          <mxGeometry relative="1" as="geometry" />
        </mxCell>
        <mxCell id="-ecldrPw1DCwmZXhr8sZ-41" value="Mostrar mensaje de error" style="whiteSpace=wrap;html=1;" vertex="1" parent="1">
          <mxGeometry x="75" y="556" width="120" height="60" as="geometry" />
        </mxCell>
        <mxCell id="-ecldrPw1DCwmZXhr8sZ-42" value="Fin" style="ellipse;whiteSpace=wrap;html=1;" vertex="1" parent="1">
          <mxGeometry x="95" y="686" width="80" height="80" as="geometry" />
        </mxCell>
      </root>
    </mxGraphModel>
  </diagram>
</mxfile>
